<!DOCTYPE svg PUBLIC "-//W3C//DTD SVG 1.1//EN" "http://www.w3.org/Graphics/SVG/1.1/DTD/svg11.dtd">
<!-- Uploaded to: SVG Repo, www.svgrepo.com, Transformed by: SVG Repo Mixer Tools -->
<svg fill="#000000" width="64px" height="64px" viewBox="-1 0 19 19" xmlns="http://www.w3.org/2000/svg" class="cf-icon-svg">
<g id="SVGRepo_bgCarrier" stroke-width="0"/>
<g id="SVGRepo_tracerCarrier" stroke-linecap="round" stroke-linejoin="round"/>
<g id="SVGRepo_iconCarrier">
<path d="M16.5 9.5a8 8 0 1 1-8-8 8 8 0 0 1 8 8zm-4.778-4.845a.803.803 0 0 0-.8-.8H6.077a.803.803 0 0 0-.8.8v9.692a.802.802 0 0 0 .8.8h4.845a.802.802 0 0 0 .8-.8zM6.077 5.912h4.845v7.266H6.077zm1.103-.99a.4.4 0 0 1 .4-.4h1.84a.4.4 0 0 1 0 .8H7.58a.4.4 0 0 1-.4-.4zm1.715 9.24a.394.394 0 1 1-.394-.394.394.394 0 0 1 .394.394z"/>
</g>
</svg>